<svg width="12" height="19" viewBox="0 0 12 19" fill="none" xmlns="http://www.w3.org/2000/svg">
<path d="M2.00006 5.91278e-05C2.13167 -0.000701904 2.26213 0.0245228 2.38397 0.0742874C2.50581 0.124052 2.61662 0.197378 2.71006 0.29006L10.7101 8.29006C10.8038 8.38302 10.8782 8.49362 10.929 8.61548C10.9797 8.73734 11.0059 8.86805 11.0059 9.00006C11.0059 9.13207 10.9797 9.26278 10.929 9.38464C10.8782 9.5065 10.8038 9.61709 10.7101 9.71006L2.71006 17.7101C2.52176 17.8984 2.26636 18.0042 2.00006 18.0042C1.73376 18.0042 1.47837 17.8984 1.29006 17.7101C1.10176 17.5218 0.99597 17.2664 0.99597 17.0001C0.99597 16.7338 1.10176 16.4784 1.29006 16.2901L8.59006 9.00006L1.29006 1.71006C1.19633 1.6171 1.12194 1.50649 1.07117 1.38464C1.0204 1.26278 0.994263 1.13207 0.994263 1.00006C0.994263 0.868048 1.0204 0.737341 1.07117 0.615482C1.12194 0.493624 1.19633 0.383022 1.29006 0.29006C1.3835 0.197378 1.49432 0.124052 1.61615 0.0742874C1.73799 0.0245228 1.86845 -0.000701904 2.00006 5.91278e-05Z" fill="#EDF8FF"/>
</svg>
