<svg width="6" height="10" viewBox="0 0 6 10" fill="none" xmlns="http://www.w3.org/2000/svg">
<path d="M4.07804 4.99972L0.269288 8.17347C0.117263 8.30116 0.0220356 8.4839 0.00445843 8.68166C-0.0131187 8.87942 0.0483875 9.07608 0.175508 9.22859C0.302628 9.38109 0.485002 9.47701 0.682693 9.49533C0.880383 9.51365 1.07728 9.45289 1.23026 9.32635L5.73045 5.57617C5.81483 5.50567 5.88271 5.41751 5.92928 5.3179C5.97586 5.2183 6 5.10968 6 4.99973C6 4.88977 5.97586 4.78116 5.92928 4.68155C5.88271 4.58195 5.81483 4.49378 5.73045 4.42328L1.23026 0.67312C1.07735 0.54597 0.880214 0.484716 0.682166 0.502816C0.484118 0.520916 0.301354 0.616888 0.174021 0.769651C0.0466871 0.922415 -0.0148025 1.11947 0.00306034 1.31754C0.0209231 1.51561 0.116678 1.69849 0.269288 1.82601L4.07804 4.99972Z" fill="#FF4951"/>
</svg>
