<svg width="32" height="32" viewBox="0 0 32 32" fill="none" xmlns="http://www.w3.org/2000/svg">
<path d="M10 27.5H22V29.5H10V27.5Z" stroke="#272727" stroke-linejoin="round"/>
<path d="M14.5 27.5V23.5C14.5 22.9477 14.9477 22.5 15.5 22.5H16.5C17.0523 22.5 17.5 22.9477 17.5 23.5V27.5" stroke="#272727" stroke-linejoin="round"/>
<path d="M16 16.75V22.2429" stroke="#272727" stroke-linecap="round" stroke-linejoin="round"/>
<path d="M16 3.00684V4.49304" stroke="#272727" stroke-linecap="round" stroke-linejoin="round"/>
<g class="left">
  <path d="M2.5 17.5H9" stroke="#272727"/>
  <path fill-rule="evenodd" clip-rule="evenodd" d="M6 6L2.5 17V17.75C2.5 19.545 3.955 21 5.75 21C7.545 21 9 19.545 9 17.75V17L6 6Z" stroke="#272727" stroke-linejoin="round"/>
</g>
<g class="center">
  <path d="M17.5 6H26" stroke="#272727" stroke-linejoin="round"/>
  <path d="M14.5 6H6" stroke="#272727" stroke-linejoin="round"/>
  <path fill-rule="evenodd" clip-rule="evenodd" d="M17.5 6C17.5 6.829 16.828 7.5 16 7.5C15.172 7.5 14.5 6.829 14.5 6C14.5 5.172 15.172 4.5 16 4.5C16.828 4.5 17.5 5.172 17.5 6Z" stroke="#272727" stroke-linejoin="round"/>
</g>
<g class="right">
  <path fill-rule="evenodd" clip-rule="evenodd" d="M26 6L29.5 17V17.75C29.5 19.545 28.045 21 26.25 21C24.455 21 23 19.545 23 17.75V17L26 6Z" stroke="#272727" stroke-linejoin="round"/>
  <path d="M23 17.5H29.5" stroke="#272727"/>
</g>
<path d="M16 7.75732V13.2502" stroke="#272727" stroke-linecap="round" stroke-linejoin="round"/>
<path d="M16.5 15C16.5 15.1326 16.4473 15.2597 16.3536 15.3535C16.2598 15.4473 16.1326 15.5 16 15.5C15.8674 15.5 15.7402 15.4473 15.6464 15.3535C15.5527 15.2597 15.5 15.1326 15.5 15C15.5 14.8674 15.5527 14.7403 15.6464 14.6465C15.7402 14.5527 15.8674 14.5 16 14.5C16.1326 14.5 16.2598 14.5527 16.3536 14.6465C16.4473 14.7403 16.5 14.8674 16.5 15Z" fill="#272727"/>
</svg>
