<svg width="118" height="12" viewBox="0 0 118 12" fill="none" xmlns="http://www.w3.org/2000/svg">
<path d="M101.593 11.8587C97.3602 11.8587 95.2437 8.95088 93.3762 6.52773C91.6331 4.20151 90.1391 2.16606 87.2756 2.16606C84.412 2.16606 82.918 4.20151 81.175 6.52773C79.3075 8.95088 77.1909 11.8587 72.9579 11.8587C68.6003 11.8587 66.6083 8.95088 64.7408 6.52773C62.9978 4.20151 61.5038 2.16606 58.6402 2.16606C55.7767 2.16606 54.2827 4.20151 52.5396 6.52773C50.6721 8.95088 48.5556 11.8587 44.198 11.8587C39.965 11.8587 37.8485 9.0478 35.9809 6.52773C34.2379 4.10458 32.7439 2.06913 29.8804 2.06913C27.0168 2.06913 25.5228 4.10458 23.7798 6.4308C21.9123 8.95088 19.7957 11.8587 15.5627 11.8587C11.3296 11.8587 9.21311 8.95088 7.34559 6.52773C5.60257 4.10458 4.10855 2.06913 1.24502 2.06913C0.622508 2.06913 0 1.68143 0 1.09987C0 0.518319 0.498006 0.130615 1.24502 0.130615C5.47807 0.130615 7.59459 2.94147 9.46212 5.46154C11.2051 7.88469 12.6992 9.92014 15.5627 9.92014C18.4262 9.92014 19.9202 7.88469 21.6633 5.55847C23.5308 3.03839 25.6473 0.227541 29.8804 0.227541C34.1134 0.227541 36.2299 3.03839 38.0975 5.55847C39.8405 7.88469 41.3345 9.92014 44.198 9.92014C47.0616 9.92014 48.5556 7.88469 50.2986 5.55847C52.1661 3.03839 54.2827 0.227541 58.6402 0.227541C62.8733 0.227541 64.9898 3.03839 66.8573 5.55847C68.6003 7.88469 70.0944 9.92014 72.9579 9.92014C75.8214 9.92014 77.3155 7.88469 79.0585 5.55847C80.926 3.03839 83.0425 0.227541 87.2756 0.227541C91.5086 0.227541 93.6252 3.03839 95.4927 5.55847C97.2357 7.88469 98.7297 9.92014 101.593 9.92014C104.457 9.92014 105.951 7.88469 107.694 5.55847C109.561 3.03839 111.678 0.227541 116.035 0.227541C116.658 0.227541 117.28 0.615245 117.28 1.1968C117.28 1.77836 116.782 2.16606 116.035 2.16606C113.172 2.16606 111.678 4.20151 109.935 6.52773C107.943 8.95088 105.951 11.8587 101.593 11.8587Z" fill="#ACCE23"/>
</svg>
